<?xml version="1.0" encoding="UTF-8" standalone="no" ?>
<!DOCTYPE svg PUBLIC "-//W3C//DTD SVG 1.1//EN" "http://www.w3.org/Graphics/SVG/1.1/DTD/svg11.dtd">
<svg xmlns="http://www.w3.org/2000/svg" xmlns:xlink="http://www.w3.org/1999/xlink" version="1.1" width="1920" height="300" viewBox="0 0 1920 300" xml:space="preserve">
<desc>Created with Fabric.js 5.2.4</desc>
<defs>
</defs>
<g transform="matrix(1 0 0 1 960 150)" id="7c98eb3f-6540-4ac7-b9f9-e7c3678c7828"  >
<rect style="stroke: none; stroke-width: 1; stroke-dasharray: none; stroke-linecap: butt; stroke-dashoffset: 0; stroke-linejoin: miter; stroke-miterlimit: 4; fill: rgb(255,255,255); fill-rule: nonzero; opacity: 1; visibility: hidden;" vector-effect="non-scaling-stroke"  x="-960" y="-150" rx="0" ry="0" width="1920" height="300" />
</g>
<g transform="matrix(Infinity NaN NaN Infinity 0 0)" id="6ae5e3b2-de8f-4e7f-86ff-ed1d980bc52a"  >
</g>
<g transform="matrix(1.17 0 0 1.08 998.78 189.67)"  >
<g style=""   >
		<g transform="matrix(0.13 0 0 -0.13 -21.33 12.32)"  >
<path style="stroke: none; stroke-width: 1; stroke-dasharray: none; stroke-linecap: butt; stroke-dashoffset: 0; stroke-linejoin: miter; stroke-miterlimit: 4; fill: #111; fill-rule: nonzero; opacity: 1;" vector-effect="non-scaling-stroke"  transform=" translate(-6400, -3089.16)" d="M 11220 3783 C 11149 3672 11097 3480 11079 3262 C 11073 3192 11065 3119 11061 3100 C 11055 3066 11053 3065 11002 3062 L 10950 3059 L 10950 3015 C 10950 2981 10945 2968 10930 2960 C 10912 2950 10908 2953 10894 2985 C 10884 3011 10876 3019 10867 3012 C 10845 2995 10805 3014 10802 3043 C 10799 3066 10794 3070 10765 3070 C 10731 3070 10731 3069 10724 3020 C 10716 2956 10702 2947 10694 3000 C 10687 3040 10687 3040 10644 3040 C 10620 3040 10599 3039 10599 3038 C 10598 3036 10594 2977 10591 2905 C 10586 2797 10582 2775 10569 2772 C 10555 2769 10552 2786 10548 2896 C 10544 2999 10540 3025 10526 3035 C 10517 3042 10510 3056 10510 3068 C 10510 3102 10499 3120 10479 3120 C 10464 3120 10460 3113 10460 3085 C 10460 3061 10454 3048 10440 3040 C 10424 3031 10420 3019 10420 2975 C 10420 2925 10418 2920 10399 2920 C 10373 2920 10310 2982 10310 3007 C 10310 3051 10285 3107 10250 3143 C 10208 3184 10190 3225 10190 3276 C 10190 3325 10173 3326 10165 3278 C 10154 3206 10140 3172 10115 3156 C 10085 3136 10053 3075 10044 3021 L 10038 2981 L 9976 2978 L 9915 2975 L 9912 2909 L 9909 2843 L 9868 2844 C 9832 2845 9825 2848 9820 2870 C 9815 2893 9809 2895 9747 2898 L 9680 2901 L 9680 2945 C 9680 2979 9675 2992 9660 3000 C 9649 3006 9640 3021 9640 3033 C 9640 3064 9625 3084 9606 3077 C 9596 3073 9590 3059 9590 3041 C 9590 3025 9584 3010 9575 3006 C 9563 3002 9560 2979 9560 2891 C 9560 2773 9556 2750 9534 2750 C 9523 2750 9520 2767 9520 2822 C 9520 2862 9515 2930 9508 2972 C 9496 3047 9495 3050 9468 3050 C 9448 3050 9438 3057 9428 3078 C 9410 3115 9376 3118 9354 3085 C 9338 3061 9332 3059 9297 3064 C 9250 3072 9230 3059 9230 3019 C 9230 2994 9226 2990 9201 2990 C 9185 2990 9165 2997 9156 3005 C 9148 3013 9126 3020 9107 3020 C 9088 3020 9067 3027 9060 3036 C 9034 3066 9010 3073 8989 3054 C 8979 3045 8970 3027 8970 3015 C 8970 3000 8962 2990 8948 2987 C 8919 2979 8908 2996 8914 3042 C 8918 3079 8899 3110 8872 3110 C 8850 3110 8830 3079 8836 3054 C 8840 3039 8836 3020 8826 3005 C 8812 2985 8801 2980 8765 2980 C 8724 2980 8720 2978 8720 2955 C 8720 2935 8715 2930 8695 2930 C 8681 2930 8662 2939 8653 2950 C 8643 2961 8623 2970 8608 2970 L 8580 2970 L 8580 2891 C 8580 2848 8577 2792 8574 2767 C 8562 2681 8550 2731 8550 2866 L 8550 3001 L 8508 2998 L 8465 2995 L 8460 2855 C 8456 2750 8453 2724 8447 2753 C 8441 2783 8435 2790 8421 2785 C 8405 2780 8402 2788 8396 2841 C 8393 2875 8390 2916 8390 2931 C 8390 2973 8340 3050 8314 3050 C 8289 3050 8251 2995 8241 2945 C 8230 2898 8170 2903 8170 2951 C 8170 2961 8163 2969 8153 2969 C 8143 2969 8113 2974 8085 2979 C 8003 2995 7993 2993 7976 2958 C 7967 2941 7960 2918 7960 2907 C 7960 2896 7957 2890 7953 2894 C 7948 2898 7946 2968 7948 3048 C 7951 3222 7941 3272 7874 3408 C 7776 3607 7610 3714 7400 3713 C 7264 3712 7149 3665 7051 3568 C 6951 3469 6880 3325 6862 3185 C 6857 3143 6851 3125 6840 3125 C 6821 3125 6812 3089 6811 2998 C 6810 2918 6803 2905 6779 2941 C 6768 2957 6759 2960 6738 2955 C 6713 2949 6711 2943 6708 2892 C 6706 2859 6700 2835 6693 2832 C 6683 2829 6680 2848 6680 2905 L 6680 2981 L 6638 2978 L 6595 2975 L 6592 2918 C 6590 2886 6586 2860 6582 2860 C 6571 2860 6510 2937 6510 2950 C 6510 2969 6477 3019 6462 3025 C 6454 3028 6439 3023 6429 3014 C 6412 2999 6402 2998 6340 3009 C 6249 3025 6192 3016 6180 2984 C 6174 2969 6162 2960 6150 2960 C 6139 2960 6126 2952 6123 2943 C 6119 2933 6111 2921 6103 2917 C 6096 2913 6090 2902 6090 2894 C 6090 2886 6084 2869 6078 2857 C 6066 2836 6065 2837 6060 2875 C 6056 2906 6048 2919 6020 2938 C 5996 2954 5983 2971 5980 2993 C 5976 3020 5970 3025 5944 3028 L 5913 3031 L 5907 3113 C 5903 3158 5900 3239 5900 3293 C 5900 3383 5890 3418 5877 3370 C 5873 3354 5863 3350 5825 3350 C 5787 3350 5777 3354 5773 3370 C 5762 3413 5750 3387 5749 3318 C 5749 3278 5745 3174 5742 3088 C 5735 2941 5733 2930 5712 2910 C 5699 2898 5686 2891 5682 2895 C 5672 2904 5662 3069 5661 3235 C 5660 3356 5657 3385 5635 3450 C 5621 3491 5601 3536 5591 3549 L 5572 3574 L 5551 3539 C 5498 3453 5489 3407 5478 3175 C 5473 3054 5469 2922 5470 2883 C 5471 2837 5468 2810 5461 2810 C 5454 2810 5450 2833 5450 2867 C 5450 2932 5424 2999 5398 3000 C 5389 3000 5369 2995 5355 2988 C 5331 2977 5330 2974 5330 2881 C 5330 2828 5327 2775 5324 2763 C 5313 2723 5300 2749 5300 2809 C 5300 2841 5296 2880 5291 2896 C 5285 2912 5279 3014 5276 3124 C 5274 3247 5268 3326 5261 3333 C 5253 3341 5250 3340 5250 3329 C 5248 3101 5237 2913 5224 2899 C 5215 2889 5210 2860 5210 2814 C 5210 2772 5206 2751 5201 2760 C 5187 2785 5179 2872 5190 2885 C 5196 2893 5195 2908 5187 2929 C 5177 2957 5177 2963 5193 2974 C 5218 2993 5215 3020 5186 3020 C 5168 3020 5161 3027 5157 3049 C 5152 3072 5145 3079 5120 3082 C 5091 3086 5087 3083 5062 3036 C 5046 3006 5031 2954 5025 2910 L 5014 2835 L 4996 2893 C 4987 2924 4974 2950 4969 2950 C 4964 2950 4960 2959 4960 2969 C 4960 3013 4950 3020 4891 3020 C 4853 3020 4825 3014 4803 3000 C 4773 2982 4770 2976 4769 2928 C 4768 2881 4767 2879 4761 2910 C 4755 2942 4753 2945 4723 2942 C 4694 2939 4690 2942 4682 2972 C 4676 2995 4677 3013 4686 3031 C 4698 3054 4697 3060 4684 3071 C 4672 3081 4666 3080 4654 3068 C 4641 3055 4640 3048 4650 3029 C 4661 3010 4660 3005 4644 2993 C 4629 2982 4623 2983 4604 3001 C 4591 3014 4580 3018 4576 3011 C 4571 3004 4561 3004 4544 3012 C 4526 3020 4518 3034 4513 3062 C 4505 3114 4476 3111 4472 3058 C 4469 3029 4463 3020 4439 3010 C 4414 2999 4410 2992 4408 2956 C 4406 2896 4393 3046 4391 3151 C 4390 3228 4387 3240 4365 3264 C 4335 3296 4310 3297 4281 3266 C 4263 3247 4256 3221 4247 3148 L 4235 3055 L 4206 3055 C 4190 3054 4175 3049 4172 3042 C 4167 3027 4148 3027 4117 3041 C 4095 3051 4094 3057 4098 3101 C 4102 3142 4098 3156 4076 3188 C 4062 3209 4050 3237 4050 3251 C 4050 3264 4045 3282 4040 3290 C 4031 3303 4029 3303 4020 3290 C 4015 3282 4010 3263 4010 3249 C 4010 3235 3998 3208 3984 3189 C 3963 3161 3959 3146 3962 3100 C 3965 3049 3963 3046 3940 3040 C 3916 3034 3915 3030 3912 2957 C 3909 2871 3890 2850 3890 2933 C 3890 2992 3883 3006 3855 3011 C 3840 3014 3834 3024 3832 3053 C 3827 3118 3781 3113 3780 3047 C 3780 3017 3745 2995 3724 3011 C 3707 3025 3692 3001 3688 2955 C 3685 2918 3682 2915 3654 2912 C 3628 2909 3618 2915 3600 2939 C 3588 2956 3574 2970 3568 2970 C 3562 2970 3533 2981 3503 2996 C 3462 3015 3437 3020 3397 3018 C 3346 3015 3345 3014 3342 2983 C 3340 2965 3335 2950 3330 2950 C 3325 2950 3313 2925 3304 2894 C 3285 2826 3270 2837 3270 2921 C 3270 2965 3264 2986 3240 3023 C 3200 3086 3182 3085 3142 3019 C 3126 2993 3120 2966 3120 2924 C 3119 2891 3113 2840 3105 2810 L 3092 2755 L 3091 2810 C 3088 2966 3073 2998 3009 2980 C 2984 2973 2972 2974 2960 2985 C 2951 2993 2927 3000 2907 3000 C 2877 3000 2870 2996 2870 2981 C 2870 2970 2866 2958 2860 2955 C 2855 2952 2850 2935 2850 2918 C 2850 2867 2836 2897 2830 2958 C 2825 3012 2824 3015 2796 3018 C 2780 3020 2756 3016 2742 3009 C 2721 2997 2716 2998 2705 3013 C 2698 3022 2680 3030 2663 3030 C 2629 3030 2610 3001 2610 2950 C 2610 2933 2606 2920 2600 2920 C 2595 2920 2590 2925 2590 2932 C 2590 2938 2584 2951 2576 2959 C 2569 2968 2553 3008 2541 3049 C 2529 3089 2515 3119 2511 3114 C 2507 3109 2495 3078 2485 3045 C 2475 3012 2462 2973 2455 2957 L 2443 2930 L 2431 2956 C 2422 2977 2417 2980 2405 2970 C 2389 2957 2385 2963 2378 3005 C 2376 3016 2366 3026 2356 3028 C 2329 3034 2300 2992 2300 2948 C 2300 2888 2281 2904 2278 2968 C 2275 3023 2274 3025 2245 3028 C 2229 3030 2192 3029 2164 3025 C 2124 3020 2111 3014 2107 2999 C 2102 2981 2095 2979 2033 2976 C 2021 2975 2013 2985 2010 3005 C 2004 3037 1998 3038 1908 3026 C 1892 3024 1860 3022 1835 3021 C 1795 3020 1790 3017 1790 2998 C 1790 2968 1775 2946 1761 2954 C 1755 2958 1750 2972 1750 2985 C 1750 2998 1744 3013 1736 3017 C 1728 3021 1720 3039 1718 3055 C 1716 3077 1710 3085 1695 3085 C 1680 3085 1674 3077 1672 3053 C 1670 3033 1661 3016 1649 3010 C 1639 3004 1630 2990 1630 2980 C 1630 2969 1624 2960 1617 2960 C 1586 2960 1580 2984 1580 3121 C 1580 3262 1574 3320 1559 3320 C 1554 3320 1550 3294 1549 3263 C 1549 3231 1545 3197 1542 3187 C 1535 3172 1531 3173 1502 3199 C 1485 3216 1470 3238 1470 3249 C 1470 3279 1452 3275 1444 3243 C 1435 3209 1388 3167 1378 3183 C 1374 3190 1370 3224 1370 3258 C 1370 3304 1367 3321 1358 3318 C 1348 3314 1344 3272 1342 3162 C 1341 3078 1335 3010 1330 3010 C 1304 3010 1290 2976 1290 2909 C 1290 2831 1273 2814 1268 2888 C 1265 2931 1263 2935 1237 2938 C 1218 2940 1204 2935 1196 2924 C 1184 2908 1182 2908 1174 2923 C 1169 2932 1148 2940 1125 2942 C 1092 2944 1084 2949 1082 2968 C 1077 2999 1038 3017 1005 3002 C 982 2991 980 2985 980 2921 C 980 2844 972 2790 959 2790 C 955 2790 950 2805 948 2823 C 946 2848 940 2856 922 2858 C 909 2860 895 2872 890 2886 C 885 2899 876 2910 871 2910 C 866 2910 860 2925 858 2943 C 855 2972 852 2975 820 2975 L 785 2975 L 779 2855 C 772 2712 771 2709 760 2735 C 755 2746 751 2810 751 2877 C 750 2987 748 3000 731 3010 C 719 3016 710 3033 708 3053 C 706 3077 700 3086 683 3088 C 663 3091 660 3087 660 3057 C 660 3036 654 3020 646 3017 C 638 3014 630 2999 628 2983 C 624 2943 596 2946 592 2988 C 589 3017 586 3020 555 3020 C 536 3020 510 3016 496 3010 C 473 3002 470 2995 470 2954 C 470 2885 446 2902 440 2976 L 435 3035 L 400 3035 C 369 3035 365 3032 362 3005 C 360 2989 354 2971 349 2965 C 344 2960 340 2943 340 2928 C 340 2907 334 2897 318 2891 C 279 2877 270 2888 270 2951 C 270 3021 266 3025 170 3025 L 105 3025 L 98 2916 C 88 2771 82 2761 81 2888 C 80 2999 75 3008 25 2996 L 0 2990 L 0 2670 L 0 2350 L 6390 2350 L 12780 2350 L 12790 2376 C 12796 2390 12800 2531 12800 2701 L 12800 3001 L 12768 2998 L 12735 2995 L 12732 2926 C 12730 2883 12724 2852 12715 2843 C 12705 2834 12700 2808 12700 2775 C 12700 2728 12688 2699 12674 2712 C 12672 2715 12667 2768 12663 2831 C 12656 2936 12653 2945 12635 2945 C 12622 2945 12614 2937 12612 2923 C 12609 2901 12578 2884 12548 2889 C 12539 2890 12526 2882 12520 2870 C 12502 2837 12490 2857 12490 2920 C 12490 2994 12484 3010 12454 3010 C 12433 3010 12430 3015 12430 3043 C 12430 3088 12403 3175 12385 3190 C 12372 3200 12367 3196 12353 3164 C 12344 3142 12335 3099 12332 3066 C 12329 3022 12323 3006 12311 3003 C 12288 2997 12270 2908 12270 2805 C 12270 2669 12251 2734 12248 2880 C 12245 3007 12244 3015 12225 3015 C 12206 3015 12205 3023 12202 3193 C 12200 3335 12197 3371 12186 3367 C 12179 3364 12148 3346 12117 3326 L 12062 3290 L 12058 3149 C 12055 3018 12053 3007 12033 2990 C 12014 2975 12010 2961 12008 2889 C 12005 2819 12002 2805 11988 2802 C 11972 2799 11970 2807 11970 2859 C 11970 2892 11966 2922 11960 2925 C 11955 2928 11950 2959 11950 2993 C 11950 3085 11940 3132 11919 3137 C 11906 3141 11902 3153 11901 3188 C 11901 3214 11899 3251 11897 3270 C 11894 3292 11898 3311 11908 3323 C 11918 3334 11919 3340 11912 3340 C 11894 3340 11898 3369 11919 3391 C 11954 3429 11958 3584 11924 3597 C 11915 3600 11912 3610 11916 3626 C 11921 3645 11917 3650 11896 3656 C 11857 3666 11818 3653 11822 3631 C 11824 3621 11818 3605 11810 3595 C 11799 3582 11795 3554 11796 3493 C 11797 3423 11800 3406 11818 3387 C 11843 3359 11847 3290 11822 3290 C 11809 3290 11810 3287 11826 3276 C 11845 3261 11845 3261 11825 3246 C 11806 3233 11806 3231 11823 3225 C 11832 3221 11840 3212 11840 3204 C 11840 3196 11832 3190 11823 3190 C 11806 3189 11806 3189 11823 3176 C 11847 3158 11844 3143 11815 3136 C 11801 3132 11790 3123 11790 3114 C 11790 3106 11783 3097 11774 3093 C 11766 3090 11745 3063 11728 3033 C 11700 2984 11695 2979 11666 2982 C 11641 2984 11634 2990 11632 3013 C 11629 3037 11625 3040 11589 3040 L 11550 3040 L 11550 2948 C 11550 2829 11540 2720 11529 2720 C 11524 2720 11520 2780 11520 2854 C 11520 2980 11519 2988 11497 3012 C 11476 3035 11472 3050 11467 3161 C 11451 3453 11383 3711 11297 3808 C 11267 3840 11253 3836 11220 3783 z M 4168 2966 C 4172 2948 4154 2920 4139 2920 C 4128 2920 4127 2974 4137 2984 C 4148 2994 4165 2985 4168 2966 z M 6697 2728 C 6694 2721 6692 2726 6692 2740 C 6692 2754 6694 2759 6697 2753 C 6699 2746 6699 2734 6697 2728 z" stroke-linecap="round" />
</g>
		<g transform="matrix(0.13 0 0 -0.13 -236.45 -46.08)"  >
<path style="stroke: none; stroke-width: 1; stroke-dasharray: none; stroke-linecap: butt; stroke-dashoffset: 0; stroke-linejoin: miter; stroke-miterlimit: 4; fill: rgb(0,0,0); fill-rule: nonzero; opacity: 1;" vector-effect="non-scaling-stroke"  transform=" translate(-4627.07, -3545.07)" d="M 4617 3564 C 4602 3549 4610 3519 4628 3522 C 4637 3524 4645 3534 4645 3544 C 4645 3564 4629 3575 4617 3564 z" stroke-linecap="round" />
</g>
		<g transform="matrix(0.13 0 0 -0.13 -223.12 -46.08)"  >
<path style="stroke: none; stroke-width: 1; stroke-dasharray: none; stroke-linecap: butt; stroke-dashoffset: 0; stroke-linejoin: miter; stroke-miterlimit: 4; fill: rgb(0,0,0); fill-rule: nonzero; opacity: 1;" vector-effect="non-scaling-stroke"  transform=" translate(-4727.07, -3545.07)" d="M 4717 3564 C 4702 3549 4710 3519 4728 3522 C 4737 3524 4745 3534 4745 3544 C 4745 3564 4729 3575 4717 3564 z" stroke-linecap="round" />
</g>
		<g transform="matrix(0.13 0 0 -0.13 -250.81 -43.54)"  >
<path style="stroke: none; stroke-width: 1; stroke-dasharray: none; stroke-linecap: butt; stroke-dashoffset: 0; stroke-linejoin: miter; stroke-miterlimit: 4; fill: rgb(0,0,0); fill-rule: nonzero; opacity: 1;" vector-effect="non-scaling-stroke"  transform=" translate(-4519.36, -3525.96)" d="M 4503 3534 C 4495 3513 4516 3492 4531 3507 C 4544 3520 4536 3550 4520 3550 C 4514 3550 4507 3543 4503 3534 z" stroke-linecap="round" />
</g>
		<g transform="matrix(0.13 0 0 -0.13 -210.47 -43.52)"  >
<path style="stroke: none; stroke-width: 1; stroke-dasharray: none; stroke-linecap: butt; stroke-dashoffset: 0; stroke-linejoin: miter; stroke-miterlimit: 4; fill: rgb(0,0,0); fill-rule: nonzero; opacity: 1;" vector-effect="non-scaling-stroke"  transform=" translate(-4821.91, -3525.85)" d="M 4806 3533 C 4797 3510 4818 3490 4830 3510 C 4835 3518 4840 3531 4840 3538 C 4840 3556 4813 3553 4806 3533 z" stroke-linecap="round" />
</g>
		<g transform="matrix(0.13 0 0 -0.13 -262.85 -38.27)"  >
<path style="stroke: none; stroke-width: 1; stroke-dasharray: none; stroke-linecap: butt; stroke-dashoffset: 0; stroke-linejoin: miter; stroke-miterlimit: 4; fill: rgb(0,0,0); fill-rule: nonzero; opacity: 1;" vector-effect="non-scaling-stroke"  transform=" translate(-4429.07, -3486.48)" d="M 4410 3496 C 4410 3489 4417 3477 4425 3470 C 4437 3460 4441 3461 4446 3473 C 4449 3482 4449 3494 4445 3500 C 4436 3515 4410 3512 4410 3496 z" stroke-linecap="round" />
</g>
		<g transform="matrix(0.13 0 0 -0.13 -198.47 -38.19)"  >
<path style="stroke: none; stroke-width: 1; stroke-dasharray: none; stroke-linecap: butt; stroke-dashoffset: 0; stroke-linejoin: miter; stroke-miterlimit: 4; fill: rgb(0,0,0); fill-rule: nonzero; opacity: 1;" vector-effect="non-scaling-stroke"  transform=" translate(-4911.91, -3485.85)" d="M 4896 3493 C 4887 3470 4908 3450 4920 3470 C 4925 3478 4930 3491 4930 3498 C 4930 3516 4903 3513 4896 3493 z" stroke-linecap="round" />
</g>
		<g transform="matrix(0.13 0 0 -0.13 -273.65 -31.52)"  >
<path style="stroke: none; stroke-width: 1; stroke-dasharray: none; stroke-linecap: butt; stroke-dashoffset: 0; stroke-linejoin: miter; stroke-miterlimit: 4; fill: rgb(0,0,0); fill-rule: nonzero; opacity: 1;" vector-effect="non-scaling-stroke"  transform=" translate(-4348.09, -3435.85)" d="M 4330 3448 C 4330 3441 4335 3428 4340 3420 C 4352 3400 4373 3420 4364 3443 C 4357 3463 4330 3466 4330 3448 z" stroke-linecap="round" />
</g>
		<g transform="matrix(0.13 0 0 -0.13 -187.69 -31.38)"  >
<path style="stroke: none; stroke-width: 1; stroke-dasharray: none; stroke-linecap: butt; stroke-dashoffset: 0; stroke-linejoin: miter; stroke-miterlimit: 4; fill: rgb(0,0,0); fill-rule: nonzero; opacity: 1;" vector-effect="non-scaling-stroke"  transform=" translate(-4992.91, -3434.76)" d="M 4982 3448 C 4965 3431 4967 3410 4985 3410 C 5001 3410 5023 3444 5013 3454 C 5004 3463 4995 3461 4982 3448 z" stroke-linecap="round" />
</g>
		<g transform="matrix(0.13 0 0 -0.13 -282.42 -22.52)"  >
<path style="stroke: none; stroke-width: 1; stroke-dasharray: none; stroke-linecap: butt; stroke-dashoffset: 0; stroke-linejoin: miter; stroke-miterlimit: 4; fill: rgb(0,0,0); fill-rule: nonzero; opacity: 1;" vector-effect="non-scaling-stroke"  transform=" translate(-4282.39, -3368.41)" d="M 4260 3377 C 4260 3354 4282 3339 4297 3352 C 4307 3360 4307 3366 4299 3376 C 4285 3394 4260 3394 4260 3377 z" stroke-linecap="round" />
</g>
		<g transform="matrix(0.13 0 0 -0.13 -179.01 -22.43)"  >
<path style="stroke: none; stroke-width: 1; stroke-dasharray: none; stroke-linecap: butt; stroke-dashoffset: 0; stroke-linejoin: miter; stroke-miterlimit: 4; fill: rgb(0,0,0); fill-rule: nonzero; opacity: 1;" vector-effect="non-scaling-stroke"  transform=" translate(-5057.95, -3367.7)" d="M 5042 3378 C 5025 3361 5047 3335 5066 3351 C 5074 3357 5080 3369 5080 3376 C 5080 3393 5058 3394 5042 3378 z" stroke-linecap="round" />
</g>
		<g transform="matrix(0.13 0 0 -0.13 -289.83 -12.24)"  >
<path style="stroke: none; stroke-width: 1; stroke-dasharray: none; stroke-linecap: butt; stroke-dashoffset: 0; stroke-linejoin: miter; stroke-miterlimit: 4; fill: rgb(0,0,0); fill-rule: nonzero; opacity: 1;" vector-effect="non-scaling-stroke"  transform=" translate(-4226.89, -3291.36)" d="M 4200 3296 C 4200 3276 4240 3264 4251 3281 C 4256 3289 4254 3298 4247 3302 C 4227 3315 4200 3311 4200 3296 z" stroke-linecap="round" />
</g>
		<g transform="matrix(0.13 0 0 -0.13 -171.22 -11.68)"  >
<path style="stroke: none; stroke-width: 1; stroke-dasharray: none; stroke-linecap: butt; stroke-dashoffset: 0; stroke-linejoin: miter; stroke-miterlimit: 4; fill: rgb(0,0,0); fill-rule: nonzero; opacity: 1;" vector-effect="non-scaling-stroke"  transform=" translate(-5116.41, -3287.02)" d="M 5100 3295 C 5094 3287 5091 3277 5094 3271 C 5104 3255 5140 3271 5140 3291 C 5140 3314 5117 3316 5100 3295 z" stroke-linecap="round" />
</g>
		<g transform="matrix(0.13 0 0 -0.13 -295.12 -0.08)"  >
<path style="stroke: none; stroke-width: 1; stroke-dasharray: none; stroke-linecap: butt; stroke-dashoffset: 0; stroke-linejoin: miter; stroke-miterlimit: 4; fill: rgb(0,0,0); fill-rule: nonzero; opacity: 1;" vector-effect="non-scaling-stroke"  transform=" translate(-4187.23, -3200.18)" d="M 4162 3203 C 4167 3178 4206 3174 4212 3197 C 4216 3212 4211 3216 4188 3218 C 4164 3220 4159 3217 4162 3203 z" stroke-linecap="round" />
</g>
		<g transform="matrix(0.13 0 0 -0.13 -166.35 -0.34)"  >
<path style="stroke: none; stroke-width: 1; stroke-dasharray: none; stroke-linecap: butt; stroke-dashoffset: 0; stroke-linejoin: miter; stroke-miterlimit: 4; fill: rgb(0,0,0); fill-rule: nonzero; opacity: 1;" vector-effect="non-scaling-stroke"  transform=" translate(-5153.04, -3202.16)" d="M 5138 3212 C 5113 3202 5131 3179 5158 3187 C 5170 3190 5180 3199 5180 3206 C 5180 3221 5166 3223 5138 3212 z" stroke-linecap="round" />
</g>
		<g transform="matrix(0.13 0 0 -0.13 -298.44 12.16)"  >
<path style="stroke: none; stroke-width: 1; stroke-dasharray: none; stroke-linecap: butt; stroke-dashoffset: 0; stroke-linejoin: miter; stroke-miterlimit: 4; fill: rgb(0,0,0); fill-rule: nonzero; opacity: 1;" vector-effect="non-scaling-stroke"  transform=" translate(-4162.4, -3108.23)" d="M 4136 3115 C 4132 3105 4138 3096 4153 3091 C 4180 3080 4190 3086 4190 3111 C 4190 3135 4145 3138 4136 3115 z" stroke-linecap="round" />
</g>
		<g transform="matrix(0.13 0 0 -0.13 -162.85 13.2)"  >
<path style="stroke: none; stroke-width: 1; stroke-dasharray: none; stroke-linecap: butt; stroke-dashoffset: 0; stroke-linejoin: miter; stroke-miterlimit: 4; fill: rgb(0,0,0); fill-rule: nonzero; opacity: 1;" vector-effect="non-scaling-stroke"  transform=" translate(-5179.36, -3100.54)" d="M 5150 3099 C 5150 3083 5155 3079 5177 3082 C 5194 3084 5206 3092 5208 3103 C 5211 3116 5205 3120 5181 3120 C 5156 3120 5150 3116 5150 3099 z" stroke-linecap="round" />
</g>
</g>
</g>
</svg>